<svg xmlns="http://www.w3.org/2000/svg" viewBox="0 0 1200 620">
  <defs>
    <linearGradient id="sky" x1="0" y1="0" x2="0" y2="1"><stop stop-color="#e8eee8"/><stop offset="1" stop-color="#f8f3e8"/></linearGradient>
    <linearGradient id="wall" x1="0" y1="0" x2="1" y2="1"><stop stop-color="#d7c39e"/><stop offset="1" stop-color="#bda57d"/></linearGradient>
  </defs>
  <rect width="1200" height="620" fill="url(#sky)"/>
  <circle cx="1060" cy="110" r="62" fill="#e8d6a9" opacity=".48"/>
  <g opacity=".25" fill="#5a735f"><circle cx="100" cy="120" r="120"/><circle cx="250" cy="60" r="90"/></g>
  <g transform="translate(125 185)">
    <rect x="0" y="120" width="870" height="235" rx="12" fill="url(#wall)"/>
    <rect x="105" y="70" width="660" height="70" fill="#d5c19b"/>
    <rect x="30" y="155" width="810" height="28" fill="#f0e8d6" opacity=".85"/>
    <g fill="#35584c">
      <rect x="65" y="210" width="100" height="68" rx="3"/><rect x="200" y="210" width="100" height="68" rx="3"/><rect x="335" y="210" width="100" height="68" rx="3"/><rect x="470" y="210" width="100" height="68" rx="3"/><rect x="605" y="210" width="100" height="68" rx="3"/>
      <rect x="740" y="205" width="72" height="150" rx="4"/>
    </g>
    <g fill="#f6f0e4" opacity=".75"><rect x="78" y="220" width="34" height="48"/><rect x="118" y="220" width="34" height="48"/><rect x="213" y="220" width="34" height="48"/><rect x="253" y="220" width="34" height="48"/><rect x="348" y="220" width="34" height="48"/><rect x="388" y="220" width="34" height="48"/><rect x="483" y="220" width="34" height="48"/><rect x="523" y="220" width="34" height="48"/><rect x="618" y="220" width="34" height="48"/><rect x="658" y="220" width="34" height="48"/></g>
    <rect x="0" y="355" width="870" height="18" fill="#8d7a58" opacity=".45"/>
  </g>
  <g transform="translate(930 120)"><rect x="-9" y="235" width="18" height="185" rx="8" fill="#7f6845"/><g fill="#526e58"><path d="M0 250 C-100 165 -135 145 -175 150 C-110 225 -70 260 0 280Z"/><path d="M0 245 C90 160 140 145 180 160 C110 225 70 262 0 280Z"/><path d="M0 235 C-50 115 -30 70 5 30 C45 115 42 185 0 250Z"/><path d="M0 255 C-135 235 -165 260 -190 300 C-105 312 -48 300 0 275Z"/><path d="M0 258 C135 235 165 265 190 305 C110 312 50 300 0 278Z"/></g></g>
  <g fill="#52705f" opacity=".9"><circle cx="160" cy="530" r="36"/><circle cx="230" cy="545" r="28"/><circle cx="1020" cy="530" r="34"/></g>
  <text x="185" y="360" font-family="Tahoma,Arial" font-size="34" fill="#7e6847" font-weight="700">بالعلم نبني الجيل القادم</text>
</svg>
